<?xml version="1.0" encoding="UTF-8" standalone="no"?>
<!DOCTYPE svg PUBLIC "-//W3C//DTD SVG 1.1//EN" "http://www.w3.org/Graphics/SVG/1.1/DTD/svg11.dtd">
<svg width="100%" height="100%" viewBox="0 0 512 512" version="1.1" xmlns="http://www.w3.org/2000/svg" xmlns:xlink="http://www.w3.org/1999/xlink" xml:space="preserve" xmlns:serif="http://www.serif.com/" style="fill-rule:evenodd;clip-rule:evenodd;stroke-linejoin:round;stroke-miterlimit:2;">
    <g transform="matrix(-14.0018,1.51814,1.51814,14.0018,429.285,6.05114)">
        <path d="M18,6.7C24.3,13.1 20.442,22.973 20.442,22.973C20.442,22.973 12.9,24.7 6.6,18.3C2.3,13.9 1,1 1,1C1,1 13.7,2.3 18,6.7Z" style="fill:rgb(131,181,79);fill-opacity:0.39;fill-rule:nonzero;"/>
    </g>
    <g transform="matrix(-13.9424,1.99155,1.99155,13.9424,421.81,13.0591)">
        <path d="M0.542,0.63C5.955,4.404 11.791,9.499 15.553,14.371C20.446,20.707 22.425,23.881 25.525,29.281C24.439,29.664 25.369,29.324 24.622,29.581C22.434,24.779 16.154,16.395 13.985,13.684C11.304,10.334 5.611,4.056 0.542,0.63" style="fill:rgb(117,153,67);fill-opacity:0.38;fill-rule:nonzero;"/>
    </g>
</svg>
